<?xml version="1.0" encoding="UTF-8"?>
<svg width="164px" height="162px" viewBox="0 0 164 162" version="1.1" xmlns="http://www.w3.org/2000/svg" xmlns:xlink="http://www.w3.org/1999/xlink">
    <!-- Generator: Sketch 49.1 (51147) - http://www.bohemiancoding.com/sketch -->
    <title>Group 3</title>
    <desc>Created with Sketch.</desc>
    <defs></defs>
    <g id="Resource-Set" stroke="none" stroke-width="1" fill="none" fill-rule="evenodd">
        <g id="Group-3" transform="translate(7.000000, 6.000000)" stroke="#FFFFFF" stroke-width="1">
            <circle id="Oval" cx="75" cy="74.2907801" r="4.70966312"></circle>
            <circle id="Oval-2" cx="75" cy="74.2907801" r="14.1289894"></circle>
            <polygon id="Path-2" points="74.8534404 0.0313237492 85.7466242 64.392005 149.968586 74.1498511 85.7466242 84.3807341 74.8534404 149.567172 64.0733948 84.3807341 0.0920850867 74.7992481 64.0733948 64.392005"></polygon>
            <polyline id="Path-3" points="83.9352765 53.3209352 125.523295 23.5372413 96.8778009 66.0481402"></polyline>
            <polyline id="Path-4" points="96.7946273 82.6635662 126.154861 125.167865 84.1044495 94.2788743"></polyline>
            <polyline id="Path-5" points="65.7058093 94.3068348 23.8222886 126.295864 53.5951294 82.8803458"></polyline>
            <polyline id="Path-6" points="53.597661 66.114671 23.8617028 23.6470382 65.9550862 53.4134655"></polyline>
            <path d="M44.1186896,52.566237 C40.3172979,57.5086234 38.7125489,62.1951373 37.7432945,68.64215 M37.7751667,80.4243382 C38.6511252,86.6615511 41.1169984,91.081136 44.6570136,95.9481099 M52.6371599,104.379485 C57.4413141,107.928659 62.3816184,110.462751 68.5508394,111.40141 M81.2102857,111.458697 C87.5481449,110.407584 92.806099,108.033276 97.6559571,104.237738 M105.863921,95.8516623 C109.071757,91.4511879 111.240312,85.7814277 112.298626,80.227191 M112.192573,68.3981217 C111.271861,62.3848986 109.509669,57.0697297 106.0996,52.3464956 M97.2024555,43.8432153 C92.3712667,40.2411266 87.3135635,37.876051 81.0888198,36.9281822 M51.7818661,43.3035796 C56.6130549,39.7014909 62.3750256,37.2051678 68.5997694,36.257299" id="Oval-3"></path>
        </g>
    </g>
</svg>