<?xml version="1.0" encoding="UTF-8"?>
<svg width="156px" height="153px" viewBox="0 0 156 153" version="1.1" xmlns="http://www.w3.org/2000/svg" xmlns:xlink="http://www.w3.org/1999/xlink">
    <!-- Generator: Sketch 49.1 (51147) - http://www.bohemiancoding.com/sketch -->
    <title>Group 5</title>
    <desc>Created with Sketch.</desc>
    <defs></defs>
    <g id="Resource-Set" stroke="none" stroke-width="1" fill="none" fill-rule="evenodd">
        <g id="Group-5" transform="translate(5.000000, 1.000000)" stroke="#FFFFFF" stroke-width="1">
            <path d="M144.002274,80.6280941 C147.860235,73.5802155 150,65.7983809 150,57.6184207 C150,25.7966456 117.617338,0 77.6712995,0 C37.7252612,0 5.34259897,25.7966456 5.34259897,57.6184207 C5.34259897,72.0313203 11.9856329,85.2082147 22.965643,95.3120544 L0.0560081571,115.374028 L34.2244933,103.676095 C42.0808359,108.294756 49.8483371,111.421162 57.5269969,113.055313" id="Oval-4"></path>
            <g id="Group-6" transform="translate(37.918268, 78.331907)">
                <polygon id="Path-8" points="96.9066511 0.0275193194 81.1686019 0.474619614 0.0589577396 56.8042332 9.66698587 71.4548056 14.928528 67.8289881 5.18650283 53.2687649 6.31590224 52.5073723 15.972506 67.062422 90.7824881 15.1817075"></polygon>
                <path d="M14.8525803,67.884137 L16.0700165,67.0025319" id="Path-7"></path>
                <path d="M81.1548777,0.577355805 L90.8039219,15.1829607" id="Path-10"></path>
            </g>
            <path d="M33.5521822,29.3790962 C37.6930042,20.5669467 149.635538,27.5149768 126.114639,36.5317385 C102.593741,45.5485002 2.92943763,50.0958168 36.9098381,60.6312458 C49.9819934,64.6841929 112.784033,55.9840926 130.783819,69.590815" id="Path-9"></path>
        </g>
    </g>
</svg>