<?xml version="1.0" encoding="UTF-8"?>
<svg width="154px" height="153px" viewBox="0 0 154 153" version="1.1" xmlns="http://www.w3.org/2000/svg" xmlns:xlink="http://www.w3.org/1999/xlink">
    <!-- Generator: Sketch 49.1 (51147) - http://www.bohemiancoding.com/sketch -->
    <title>Group 4</title>
    <desc>Created with Sketch.</desc>
    <defs></defs>
    <g id="Resource-Set" stroke="none" stroke-width="1" fill="none" fill-rule="evenodd">
        <g id="Group-4" transform="translate(2.000000, 2.000000)" stroke="#FFFFFF" stroke-width="2">
            <polygon id="Path-14" points="18.6783403 149.906619 18.6783403 68.4048536 131.325591 68.4048536 131.325591 149.906619"></polygon>
            <polyline id="Path-15" points="56.1362109 149.906619 56.1362109 113.395923 87.9865302 113.395923 87.9865302 149.906619"></polyline>
            <polyline id="Path-16" points="56.1362109 113.583004 56.1362109 101.730532 87.9865302 101.730532 87.9865302 113.583004"></polyline>
            <polygon id="Path-18" points="18.721924 68.4405503 75.0971566 13.0119962 131.472389 68.4405503"></polygon>
            <polyline id="Path-20" points="18.7908169 68.4322003 9.12753292 78.4867406 0.00352018097 71.2037496 75.4368403 0.0799998672 149.955774 71.2037496 140.786086 78.4867406 131.414651 68.4322003"></polyline>
            <circle id="Oval-6" cx="109.900592" cy="91.476442" r="2.82352941"></circle>
            <circle id="Oval-6" cx="99.6271824" cy="91.476442" r="2.82352941"></circle>
            <circle id="Oval-6" cx="59.101531" cy="135.646773" r="1"></circle>
            <circle id="Oval-6" cx="120.175128" cy="91.476442" r="2.82352941"></circle>
            <polyline id="Path-21" points="119.487654 42.1828953 119.487654 19.2491418 130.590442 19.2491418 130.590442 52.7730056"></polyline>
            <polygon id="Path-19" points="65.2968037 40.9587379 65.2968037 60.0175614 84.3556272 60.0175614 84.3556272 40.9587379"></polygon>
        </g>
    </g>
</svg>