<?xml version="1.0" encoding="UTF-8"?>
<svg width="77px" height="75px" viewBox="0 0 77 75" version="1.1" xmlns="http://www.w3.org/2000/svg" xmlns:xlink="http://www.w3.org/1999/xlink">
    <!-- Generator: Sketch 49.1 (51147) - http://www.bohemiancoding.com/sketch -->
    <title>github-6003_9d00f1be-b981-48f8-80de-d90f9ba26f0a</title>
    <desc>Created with Sketch.</desc>
    <defs></defs>
    <g id="Landing-Page-Layout-Exploration" stroke="none" stroke-width="1" fill="none" fill-rule="evenodd" stroke-linecap="round" stroke-linejoin="round">
        <g id="Desktop" transform="translate(-435.000000, -1797.000000)" stroke="#904E55" stroke-width="2">
            <g id="Group-2" transform="translate(391.000000, 1766.000000)">
                <g id="github-6003_9d00f1be-b981-48f8-80de-d90f9ba26f0a" transform="translate(45.000000, 32.000000)">
                    <path d="M37.258261,0 C18.9784133,0.00998446992 3.40310356,13.2742761 0.482282555,31.319268 C-2.43853845,49.3642599 8.15709749,66.8646658 25.5003967,72.6407285 C27.3629795,72.9896523 28.0620689,71.8261589 28.0620689,70.8948675 L28.0620689,63.9101821 C17.7011418,66.1192053 15.4896351,59.4859272 15.4896351,59.4859272 C13.7437742,55.178394 11.2988239,54.0149007 11.2988239,54.0149007 C7.92258215,51.6866722 11.5310259,51.803394 11.5310259,51.803394 C15.2561914,52.0368377 17.2354961,55.6452815 17.2354961,55.6452815 C20.6117378,61.3497517 25.9660424,59.7193709 28.0620689,58.7880795 C28.2257066,56.8978286 29.050029,55.1256455 30.3902974,53.7826987 C22.1253967,52.8514073 13.3936086,49.5918874 13.3936086,35.3903146 C13.3248829,31.6805953 14.7027784,28.0897835 17.2354961,25.3783113 C16.1359123,22.1484787 16.2600716,18.6273906 17.5844199,15.4830298 C17.5844199,15.4830298 20.7272179,14.4350166 27.8286252,19.3249172 C30.8634927,18.4922906 33.9945734,18.0618714 37.1415391,18.044702 C40.2890655,18.0539199 43.4211912,18.4844828 46.454453,19.3249172 C53.5558603,14.5517384 56.6986583,15.4830298 56.6986583,15.4830298 C58.0230066,18.6273906 58.1471659,22.1484787 57.0475822,25.3783113 C59.5986407,28.0782772 60.9795254,31.6768787 60.8894696,35.3903146 C60.8894696,49.7086093 52.1589232,52.852649 43.8927808,53.7839404 C45.6816052,55.6081647 46.6126135,58.1055954 46.454453,60.6556291 L46.454453,70.8998344 C46.454453,71.9478477 47.1523007,72.9946192 49.0161252,72.6456954 C66.3673557,66.8751153 76.9707644,49.3704131 74.0492122,31.31967 C71.1276601,13.2689268 55.5439053,0.00267409352 37.258261,0 Z" id="Shape"></path>
                </g>
            </g>
        </g>
    </g>
</svg>