<?xml version="1.0" encoding="UTF-8"?>
<svg width="77px" height="80px" viewBox="0 0 77 80" version="1.1" xmlns="http://www.w3.org/2000/svg" xmlns:xlink="http://www.w3.org/1999/xlink">
    <!-- Generator: Sketch 49.1 (51147) - http://www.bohemiancoding.com/sketch -->
    <title>instagram-6021_7880a995-aeda-4106-a837-636cc90dff09</title>
    <desc>Created with Sketch.</desc>
    <defs></defs>
    <g id="Landing-Page-Layout-Exploration" stroke="none" stroke-width="1" fill="none" fill-rule="evenodd" stroke-linecap="round" stroke-linejoin="round">
        <g id="Desktop" transform="translate(-1015.000000, -1797.000000)" stroke="#904E55" stroke-width="2">
            <g id="Group-3" transform="translate(971.000000, 1766.000000)">
                <g id="instagram-6021_7880a995-aeda-4106-a837-636cc90dff09" transform="translate(45.000000, 32.000000)">
                    <path d="M9.61125251,0.00346092904 L65.3874967,0.00346092904 C67.9562666,-0.0673499088 70.4403997,0.951029534 72.2575648,2.81987044 C74.0747298,4.68871134 75.065144,7.24368717 74.9966343,9.88585972 L74.9966343,67.2557109 C75.0654933,69.8981035 74.0752334,72.4534191 72.2580288,74.3225439 C70.4408241,76.1916687 67.9564895,77.2102217 65.3874967,77.1393953 L9.61125251,77.1393953 C7.04247364,77.2098624 4.55846936,76.1911506 2.7415407,74.3220666 C0.924612047,72.4529826 -0.065479078,69.8978743 0.00336479212,67.2557109 L0.00336479212,9.88585972 C-0.0651298007,7.2439164 0.925115651,4.6891478 2.74200467,2.82034767 C4.5588937,0.951547526 7.0426965,-0.0669906521 9.61125251,0.00346092904 Z" id="Shape"></path>
                    <path d="M54.254409,8.31932773 C52.3828771,8.32074787 50.866044,9.88723932 50.8646688,11.8200417 L50.8646688,20.1488828 C50.866044,22.0816852 52.3828771,23.6481767 54.254409,23.6495968 L62.6695419,23.6495968 C64.5410738,23.6481767 66.057907,22.0816852 66.0592821,20.1488828 L66.0592821,11.8200417 C66.057907,9.88723932 64.5410738,8.32074787 62.6695419,8.31932773 L54.254409,8.31932773 Z M66.1764706,32.4599631 L59.6313673,32.4599631 C60.2443345,34.6161998 60.5591194,36.8510882 60.566382,39.098316 C60.566382,51.892209 50.1640311,62.394351 37.3082015,62.394351 C30.0661305,62.6244836 23.1575538,59.2491682 18.7365791,53.3208346 C14.3156043,47.392501 12.9200437,39.632332 14.9850357,32.4599631 L8.08823529,32.4599631 L8.08836683,65.0504647 C8.08096157,65.8530643 8.38650079,66.6249996 8.93617588,67.1924278 C9.48585097,67.7598561 10.233446,68.0750687 11.0105996,68.0670785 L63.1370493,68.0670785 C63.9144212,68.0750743 64.6622095,67.759686 65.2119218,67.1919772 C65.761634,66.6242683 66.0670244,65.8519989 66.0592821,65.0491772 L66.1764706,32.4599631 Z" id="Shape"></path>
                    <path d="M37.1323529,22.6923908 C28.9417452,22.5718808 22.200857,29.3620063 22.0588235,37.8760212 C22.1324498,41.9525758 23.7628854,45.8312729 26.590586,48.6567806 C29.4182865,51.4822883 33.210999,53.0225337 37.1323529,52.9378613 C45.3229607,53.0583713 52.0638489,46.2682458 52.2058824,37.7542309 C52.132256,33.6776763 50.5018205,29.7989792 47.6741199,26.9734715 C44.8464194,24.1479638 41.0537069,22.6077184 37.1323529,22.6923908 Z" id="Shape"></path>
                </g>
            </g>
        </g>
    </g>
</svg>