<?xml version="1.0" encoding="UTF-8"?>
<svg width="76px" height="76px" viewBox="0 0 76 76" version="1.1" xmlns="http://www.w3.org/2000/svg" xmlns:xlink="http://www.w3.org/1999/xlink">
    <!-- Generator: Sketch 49.1 (51147) - http://www.bohemiancoding.com/sketch -->
    <title>linkedin-6017_fd290518-38a1-47f0-b108-efa17d6a1274</title>
    <desc>Created with Sketch.</desc>
    <defs></defs>
    <g id="Landing-Page-Layout-Exploration" stroke="none" stroke-width="1" fill="none" fill-rule="evenodd" stroke-linecap="round" stroke-linejoin="round">
        <g id="Desktop" transform="translate(-436.000000, -1620.000000)" stroke="#904E55" stroke-width="2">
            <g id="Group-2" transform="translate(391.000000, 1586.000000)">
                <g id="linkedin-6017_fd290518-38a1-47f0-b108-efa17d6a1274" transform="translate(46.000000, 35.000000)">
                    <polygon id="Shape" points="1.39622642 24.2821985 16.754717 24.2821985 16.754717 73.6054143 1.39622642 73.6054143"></polygon>
                    <path d="M55.0349015,22.7645611 C48.4025157,22.7645611 44.4471614,25.3945598 40.2584822,31.15411 L40.2584822,24.3927827 L25.1320755,24.3927827 L25.1320755,73.6054143 L40.3739036,73.6054143 L40.3739036,46.9327664 C40.3739036,41.2974365 43.0496939,35.7876628 49.1000084,35.7876628 C55.1503229,35.7876628 58.7569308,41.2974365 58.7569308,46.8072103 L58.7569308,73.6054143 L74,73.6054143 L74,45.6812129 C74,26.2707808 61.7827086,22.7645611 55.0349015,22.7645611 Z" id="Shape"></path>
                    <path d="M9.0754717,2.39623236e-15 C4.00784094,2.39623236e-15 0,3.92007455 0,8.72641509 C0,13.5327556 4.00784094,17.4528302 9.0754717,17.4528302 C14.1431025,17.4528302 18.1509434,13.5327556 18.1509434,8.72641509 C18.1509434,3.92007455 14.1431025,0 9.0754717,2.39623236e-15 Z" id="Shape"></path>
                </g>
            </g>
        </g>
    </g>
</svg>