<?xml version="1.0" encoding="UTF-8"?>
<svg width="691px" height="460px" viewBox="0 0 691 460" version="1.1" xmlns="http://www.w3.org/2000/svg" xmlns:xlink="http://www.w3.org/1999/xlink">
    <!-- Generator: Sketch 49.1 (51147) - http://www.bohemiancoding.com/sketch -->
    <title>Group 3</title>
    <desc>Created with Sketch.</desc>
    <defs></defs>
    <g id="Resource-Set" stroke="none" stroke-width="1" fill="none" fill-rule="evenodd">
        <g id="Group-3" transform="translate(1.000000, 0.000000)" stroke="#FFFFFF">
            <path d="M0,419 L0,438.250061 C17.1214929,452.083354 31.5790941,459 43.3728035,459 C61.0633676,459 620.0048,459 642.285678,459 C657.139597,459 672.711037,452.083354 689,438.250061 L689,419 L0,419 Z" id="Path-2" stroke-width="1"></path>
            <path d="M2,439.5 L689,439.5" id="Path-3"></path>
            <path d="M294,419 C294,422.333333 295.721389,424 299.164167,424 C304.328333,424 384.44776,424 390.72388,424 C394.90796,424 397,422.333333 397,419" id="Path-4"></path>
            <path d="M50,418 L115.254489,418 L638,418 L638,25 C638,11.745166 627.254834,1 614,1 L74,1 C60.745166,1 50,11.745166 50,25 L50,418 Z" id="Rectangle-5" stroke-width="1"></path>
            <ellipse id="Oval-5" cx="344.5" cy="30.5" rx="5.5" ry="6.5"></ellipse>
            <rect id="Path" x="67" y="46" width="554" height="356"></rect>
        </g>
    </g>
</svg>