<?xml version="1.0" encoding="UTF-8"?>
<svg width="154px" height="152px" viewBox="0 0 154 152" version="1.1" xmlns="http://www.w3.org/2000/svg" xmlns:xlink="http://www.w3.org/1999/xlink">
    <!-- Generator: Sketch 49.1 (51147) - http://www.bohemiancoding.com/sketch -->
    <title>Group 7</title>
    <desc>Created with Sketch.</desc>
    <defs></defs>
    <g id="Resource-Set" stroke="none" stroke-width="1" fill="none" fill-rule="evenodd">
        <g id="Group-7" transform="translate(2.000000, 1.000000)" stroke="#FFFFFF" stroke-width="1">
            <polyline id="Path-11" points="93.6626928 78.7485059 89.3803727 37.5243073 16.6839916 37.5243073 15.970067 42.1607444 0.388533991 143.351833 0 145.875088 80.6798546 145.875088"></polyline>
            <path d="M22.2352941,40.1384083 C32.5798687,15.1899349 42.7173228,2.71569817 52.6476562,2.71569817 C62.5779897,2.71569817 72.7154437,15.1899349 83.0600183,40.1384083" id="Path-12"></path>
            <path d="M22.2352941,37.5432526 C32.5798687,12.5947792 42.7173228,0.120542456 52.6476562,0.120542456 C62.5779897,0.120542456 72.7154437,12.5947792 83.0600183,37.5432526" id="Path-12"></path>
            <polygon id="Path-11" points="80 149.927447 150 149.927447 142.118291 78.769952 91.5951747 78.769952 91.0990057 81.8148516 80.2700265 148.270343"></polygon>
            <path d="M95.1176471,83.513785 C103.501309,61.3758976 110.981702,50.3069539 117.558824,50.3069539 C124.135945,50.3069539 130.870774,61.3758976 137.763308,83.513785" id="Path-12"></path>
            <path d="M95.1176471,78.8425047 C103.501309,56.7046173 110.981702,45.6356736 117.558824,45.6356736 C124.135945,45.6356736 130.870774,56.7046173 137.763308,78.8425047" id="Path-12"></path>
            <path d="M52.0155787,122.93909 C35.5436487,105.385942 26.6670914,93.7600529 25.3859069,88.061424 C23.46413,79.5134806 29.0092457,68.8358076 35.6070091,68.8358076 C40.005518,68.8358076 44.9226277,75.2443464 50.3583383,88.061424 C56.1936702,75.2443464 61.2136261,68.8358076 65.418206,68.8358076 C71.7250759,68.8358076 77.7611549,79.2430877 75.4908913,88.061424 C73.9773823,93.9403149 66.1522781,105.566204 52.0155787,122.93909 Z" id="Path-13"></path>
            <circle id="Oval-5" cx="22.0588235" cy="42" r="1.05882353"></circle>
            <circle id="Oval-5" cx="83.2941176" cy="42" r="1.05882353"></circle>
            <circle id="Oval-5" cx="94.7647059" cy="86.1176471" r="1.05882353"></circle>
            <circle id="Oval-5" cx="138.177647" cy="86.1188235" r="1.05999994"></circle>
        </g>
    </g>
</svg>