<?xml version="1.0" encoding="UTF-8"?>
<svg width="152px" height="151px" viewBox="0 0 152 151" version="1.1" xmlns="http://www.w3.org/2000/svg" xmlns:xlink="http://www.w3.org/1999/xlink">
    <!-- Generator: Sketch 49.1 (51147) - http://www.bohemiancoding.com/sketch -->
    <title>Speaker</title>
    <desc>Created with Sketch.</desc>
    <defs></defs>
    <g id="Resource-Set" stroke="none" stroke-width="1" fill="none" fill-rule="evenodd">
        <g id="Speaker" transform="translate(1.000000, 1.000000)" stroke="#FFFFFF">
            <path d="M76.125,116.8125 L76.0873038,148.930676" id="Path-4" stroke-width="2"></path>
            <path d="M59.7319726,148.993289 C47.0336885,148.993289 59.7723843,148.993289 97.94806,148.993289" id="Path-5" stroke-width="2"></path>
            <path d="M76.0270341,0 C97.7454621,0 118.581081,0 118.581081,19.3824227 C118.581081,38.7648455 118.581081,64.0043795 118.581081,84.8545387 C118.581081,105.704698 96.0839824,105.704698 76.0270341,105.704698 C56.5756783,105.704698 33.5338295,105.704698 33.5338295,86.8040427 C33.5338295,86.1732755 33.472987,85.5256634 33.472987,84.8545387 C33.472987,62.6271974 33.4121446,45.1992413 33.472987,22.5996207 C33.5338295,0 54.3086061,1.81506086e-15 76.0270341,0 Z" id="Path-2" stroke-width="2"></path>
            <path d="M124.662162,50.5415551 C124.662162,65.5530304 124.662162,81.7548616 124.662162,95.9283643 C124.662162,116.778523 98.9511923,116.778523 76.0289656,116.778523 C53.7988447,116.778523 27.4653032,116.778523 27.4653032,97.8778682 C27.4653032,97.247101 27.395769,96.5994889 27.395769,95.9283643 C27.395769,79.7123733 27.3587597,66.0508333 27.3657417,51.0719808" id="Path-2" stroke-width="2"></path>
            <path d="M33.4459459,31.2080537 C33.4459459,31.2080537 52.2037623,31.2080537 60.8944173,31.2080537 C69.5850722,31.2080537 70.8774239,41.2751678 60.8944173,41.2751678 C56.8776626,41.2751678 47.7281722,41.2751678 33.4459459,41.2751678 C33.4459459,34.5637584 33.4459459,31.2080537 33.4459459,31.2080537 Z" id="Path-6" stroke-width="2"></path>
            <path d="M84.1216216,31.2080537 C84.1216216,31.2080537 102.879438,31.2080537 111.570093,31.2080537 C120.260748,31.2080537 121.5531,41.2751678 111.570093,41.2751678 C107.553338,41.2751678 98.4038479,41.2751678 84.1216216,41.2751678 C84.1216216,34.5637584 84.1216216,31.2080537 84.1216216,31.2080537 Z" id="Path-6" stroke-width="2" transform="translate(101.351351, 36.241611) scale(-1, 1) translate(-101.351351, -36.241611) "></path>
            <path d="M84.1216216,49.3288591 C84.1216216,49.3288591 102.879438,49.3288591 111.570093,49.3288591 C120.260748,49.3288591 121.5531,59.3959732 111.570093,59.3959732 C107.553338,59.3959732 98.4038479,59.3959732 84.1216216,59.3959732 C84.1216216,52.6845638 84.1216216,49.3288591 84.1216216,49.3288591 Z" id="Path-6" stroke-width="2" transform="translate(101.351351, 54.362416) scale(-1, 1) translate(-101.351351, -54.362416) "></path>
            <path d="M84.1216216,68.4563758 C84.1216216,68.4563758 102.879438,68.4563758 111.570093,68.4563758 C120.260748,68.4563758 121.5531,78.5234899 111.570093,78.5234899 C107.553338,78.5234899 98.4038479,78.5234899 84.1216216,78.5234899 C84.1216216,71.8120805 84.1216216,68.4563758 84.1216216,68.4563758 Z" id="Path-6" stroke-width="2" transform="translate(101.351351, 73.489933) scale(-1, 1) translate(-101.351351, -73.489933) "></path>
            <path d="M33.4459459,49.3288591 C33.4459459,49.3288591 52.2037623,49.3288591 60.8944173,49.3288591 C69.5850722,49.3288591 70.8774239,59.3959732 60.8944173,59.3959732 C56.8776626,59.3959732 47.7281722,59.3959732 33.4459459,59.3959732 C33.4459459,52.6845638 33.4459459,49.3288591 33.4459459,49.3288591 Z" id="Path-6" stroke-width="2"></path>
            <path d="M33.4459459,68.4563758 C33.4459459,68.4563758 52.2037623,68.4563758 60.8944173,68.4563758 C69.5850722,68.4563758 70.8774239,78.5234899 60.8944173,78.5234899 C56.8776626,78.5234899 47.7281722,78.5234899 33.4459459,78.5234899 C33.4459459,71.8120805 33.4459459,68.4563758 33.4459459,68.4563758 Z" id="Path-6" stroke-width="2"></path>
            <g id="Group-3">
                <path d="M21.2044059,7.04697987 C16.9125629,10.148252 13.487967,13.9258007 10.930618,18.3796258 C8.37326907,22.8334509 7.09459459,28.2238446 7.09459459,34.5508069" id="Path-3"></path>
                <path d="M17.4282324,0 C11.6188216,3.95943144 7.4025902,8.5611055 4.77953823,13.8050222 C2.15648625,19.0489389 0.652265242,25.5867405 0.266875212,33.4184269" id="Path-3"></path>
            </g>
            <g id="Group-3" transform="translate(139.358108, 17.617450) scale(-1, 1) translate(-139.358108, -17.617450) translate(128.716216, 0.000000)">
                <path d="M21.2044059,7.04697987 C16.9125629,10.148252 13.487967,13.9258007 10.930618,18.3796258 C8.37326907,22.8334509 7.09459459,28.2238446 7.09459459,34.5508069" id="Path-3"></path>
                <path d="M17.4282324,0 C11.6188216,3.95943144 7.4025902,8.5611055 4.77953823,13.8050222 C2.15648625,19.0489389 0.652265242,25.5867405 0.266875212,33.4184269" id="Path-3"></path>
            </g>
        </g>
    </g>
</svg>