<?xml version="1.0" encoding="UTF-8"?>
<svg width="459px" height="733px" viewBox="0 0 459 733" version="1.1" xmlns="http://www.w3.org/2000/svg" xmlns:xlink="http://www.w3.org/1999/xlink">
    <!-- Generator: Sketch 49.1 (51147) - http://www.bohemiancoding.com/sketch -->
    <title>Group</title>
    <desc>Created with Sketch.</desc>
    <defs></defs>
    <g id="Resource-Set" stroke="none" stroke-width="1" fill="none" fill-rule="evenodd">
        <g id="Group" transform="translate(1.000000, 1.000000)" stroke="#FFFFFF" stroke-width="1">
            <path d="M189.383608,153.391123 C154.531196,153.391123 95.7941553,172.448994 58.4549319,230.12973 C27.2543157,281.625489 11.9937752,342.547757 27.0139922,414.658624 C49.3592851,488.154202 93.8736393,519.015576 153.248039,528.455149 C181.951398,533.01852 214.576409,522.475104 242.292171,507.339267 M289.116048,474.011075 C296.887548,466.542732 305.497915,456.794235 310.744855,449.642405 C350.823628,397.270995 361.398115,332.975166 342.468317,256.754919 C328.356893,219.743092 309.335643,193.363871 285.416059,178.31862" id="Path-2"></path>
            <path d="M172.005519,148.32871 C129.018397,156.487949 93.9646615,176.06468 66.8443112,207.058904 C26.1637857,253.550239 5.3612938,312.776442 10.2997325,378.821229 C15.2381713,444.866016 54.2884974,474.959124 74.9536287,494.597781" id="Path-3"></path>
            <path d="M70.6992577,253.790501 C76.4579277,259.725148 102.100417,274.520363 147.626726,298.176144 C159.843934,298.176144 165.952539,292.325758 165.952539,280.624987 C165.952539,263.07383 161.934102,198.260504 156.850617,181.925332 C151.767131,165.59016 62.0612526,244.888529 70.6992577,253.790501 Z" id="Path-4"></path>
            <path d="M40.9629725,380.284987 C50.3247662,384.84281 128.084793,349.897315 133.707518,343.234368 C139.330243,336.571422 137.377063,329.904794 137.377063,323.208366 C137.377063,318.74408 112.126219,299.431444 61.6245315,265.270458 C40.9629725,284.002345 31.6011788,375.727164 40.9629725,380.284987 Z" id="Path-5"></path>
            <path d="M43.0104371,396.724156 C33.8089564,406.234042 82.8285816,488.012948 93.0926892,482.147282 C103.356797,476.281616 140.79379,397.780325 144.803579,388.27044 C148.813369,378.760554 147.054613,369.556172 136.593161,369.556172 C126.131708,369.556172 52.2119178,387.214271 43.0104371,396.724156 Z" id="Path-6"></path>
            <path d="M168.763034,397.38026 C162.061371,401.069582 109.962472,472.914162 109.962472,490.469569 C109.962472,508.024976 198.522332,505.869049 202.667354,496.983221 C206.812376,488.097394 188.648661,412.136303 185.689084,403.441758 C182.729506,394.747212 175.464696,393.690938 168.763034,397.38026 Z" id="Path-7"></path>
            <path d="M204.079507,157.947295 C203.012497,256.330592 203.012497,307.975926 204.079507,310.439945 C205.680023,314.135973 207.777084,312.005726 213.422454,313.400815 C219.067823,314.795904 220.740968,384.744029 217.777143,388.587254 C215.80126,391.149405 211.235381,391.149405 204.079507,388.587254 L204.079507,399.88445 C223.367872,419.722552 234.114647,434.78912 236.319832,445.084156 C239.62761,460.526709 240.695221,449.634715 242.438719,496.799227 C243.601051,528.242234 243.472249,562.694919 242.052314,600.157279 L279.105146,639.382802 C281.990329,567.57456 283.570066,520.046702 283.844358,496.799227 C284.255796,461.928014 283.844358,460.324346 281.598189,428.08592 C279.35202,395.847494 278.637878,364.972879 264.057925,344.401455 C249.477972,323.830031 243.61858,331.228525 240.16862,325.998532 C237.868646,322.511869 237.490503,304.388892 239.03419,271.6296 L240.16862,168.445264" id="Path-8"></path>
            <path d="M289.354885,559.902913 L288.525386,636.476616 C299.921167,646.379835 310.916117,653.021707 321.510236,656.402232 C337.401415,661.473019 348.690633,659.057431 359.290686,659.057431 C369.890738,659.057431 430.652494,647.964427 445.398354,639.675371 C460.144213,631.386315 457.139448,617.365526 453.568929,612.764826 C449.99841,608.164127 406.401242,581.766996 376.331052,572.809052 C356.284259,566.837089 327.292203,562.535042 289.354885,559.902913 Z" id="Path-9"></path>
            <path d="M77.9380961,499.153953 C66.7316855,535.771309 60.5255938,562.095667 59.319821,578.127026 C57.5111617,602.174064 54.9435055,611.801689 71.8690081,636.954726 C88.7945107,662.107763 112.25055,682.09971 137.214456,692.749464 C162.178363,703.399218 170.368173,703.692329 203.284067,705.050905 C236.199962,706.40948 262.576014,697.785164 276.853299,692.749464 C291.130584,687.713763 296.134855,684.278805 297.884263,671.684741 C299.633672,659.090677 291.420455,651.000266 264.853906,624.726476 C238.287357,598.452687 230.729231,594.008541 203.284067,578.127026 C175.838904,562.245511 160.414757,559.859577 142.532693,553.943653 C124.650629,548.027729 114.532088,538.211494 108.753263,532.032771 C102.974438,525.854048 111.121472,517.576817 106.313885,515.218481 C103.108826,513.646258 93.6502299,508.291415 77.9380961,499.153953 Z" id="Path-10"></path>
            <path d="M59.075686,481.19908 C61.5607004,481.19908 60.8606356,523.818325 56.9754918,609.056814 L56.9754918,653.482202 L7.86189214,663.176144 C4.87921084,556.881233 4.5397351,490.768055 4.5397351,478.127093 C4.5397351,459.165651 20.1261366,432.564503 21.6661051,429.292649" id="Path-11"></path>
            <path d="M67.0871965,454.604716 C68.2454949,447.869505 75.8152584,439.046954 89.796487,428.137063 C103.777716,417.227172 120.588011,407.656288 140.227373,399.424411" id="Path-12"></path>
            <path d="M53.5841482,378.162275 C56.8742797,375.022955 58.5193454,370.583168 58.5193454,364.842913 C58.5193454,356.232531 49.5507311,356.821387 48.4683335,335.859605 C47.7467351,321.885084 55.8025445,301.224069 72.6357616,273.87656" id="Path-13"></path>
            <path d="M92.6993779,286.026352 C80.7208371,309.485607 74.093994,325.112495 72.8188485,332.907018 C70.9061303,344.598803 84.4427292,351.345979 91.8506397,344.598803 C96.7892468,340.100685 104.507908,325.979744 115.006623,302.235979" id="Path-14"></path>
            <path d="M100.883002,273.770763 C105.60982,267.766399 109.856102,264.764216 113.621848,264.764216 C119.270467,264.764216 122.185811,269.37288 123.595836,273.770763 C124.535852,276.702686 124.124081,280.619135 122.360523,285.520111" id="Path-15"></path>
            <path d="M80.7064018,261.220527 C90.5004184,249.622598 98.4432703,243.153056 104.534958,241.811902 C113.672488,239.80017 119.995422,241.811902 123.309974,237.016386 C125.519676,233.819376 126.129769,219.781551 125.140252,194.902913" id="Path-16"></path>
            <path d="M85.2461369,198.952843 L163.934879,42.5242718" id="Path-17"></path>
            <path d="M125.501041,162.503467 C124.286997,95.5648706 124.286997,54.6024964 125.501041,39.6163449 C127.322108,17.1371175 146.825701,6.06004938 151.968232,3.2762757 C157.110763,0.49250203 182.975527,-2.43742826 191.378764,3.2762757 C196.980922,7.08541168 201.788442,11.1811833 205.801325,15.5635906" id="Path-18"></path>
            <path d="M211.688701,312.652445 C205.418178,312.064097 201.114671,312.336702 198.778182,313.47026 C195.273447,315.170596 187.642384,335.944756 187.642384,342.022205 C187.642384,348.099654 187.642384,361.526481 192.954931,374.931837 C196.496628,383.86874 203.300835,388.826737 213.36755,389.805825" id="Path-19"></path>
            <path d="M208.3234,404.993065 C210.899494,461.3546 214.096103,489.535368 217.913225,489.535368 C221.730347,489.535368 229.630869,485.400623 241.61479,477.131134" id="Path-20"></path>
            <path d="M247.163355,176.678225 C256.579102,180.054344 261.286976,184.561907 261.286976,190.200913 C261.286976,195.83992 256.579102,206.688344 247.163355,222.746186" id="Path-21"></path>
            <path d="M247.773235,250.253589 C247.077812,257.715386 247.167081,298.118788 247.167081,306.835712 C247.167081,315.552637 317.408734,293.05737 322.3912,284.275972 C327.373666,275.494573 288.065014,190.935822 277.695675,200.161377 C267.326336,209.386932 248.468658,242.791792 247.773235,250.253589 Z" id="Path-22"></path>
            <path d="M325.058548,302.283772 C330.815618,306.059967 315.836666,397.09186 311.065053,391.591283 C306.29344,386.090707 296.814482,365.671229 282.545345,355.013237 C268.276208,344.355245 275.96706,336.015016 275.96706,336.015016 C275.96706,336.015016 279.266926,331.125382 280.838647,326.129135 C282.410368,321.132887 282.545345,314.932095 282.545345,314.932095 C282.545345,314.932095 319.301477,298.507577 325.058548,302.283772 Z" id="Path-23"></path>
            <path d="M204.288079,170.138503 C185.526312,169.860779 174.952154,170.97982 172.565606,173.495626 C168.985785,177.269335 183.582631,267.278628 187.573456,273.858109 C190.234005,278.244429 195.502225,280.950534 203.378115,281.976422 L204.288079,170.138503 Z" id="Path-24"></path>
            <path d="M246.936289,170.097087 C246.936289,260.907159 246.936289,307.594676 246.936289,310.159638 C246.936289,314.00708 244.574756,322.422925 253.633567,328.260273 C262.692378,334.09762 267.844371,333.287263 275.147911,349.349187 C282.451451,365.41111 285.461539,376.047756 288.139571,453.100161 C289.924926,504.468431 289.024887,568.58761 285.439454,645.457698" id="Path-25"></path>
            <path d="M321.312362,434.861304 C319.630979,528.301886 318.790287,570.207618 318.790287,560.578501" id="Path-26"></path>
            <polyline id="Path-27" points="127.112583 697.257185 127.112583 724.071577 135.728117 730 163.207542 724.071577 163.207542 730 428.342531 668.6572 428.342531 664.381092 452.460265 658.913519 452.460265 639.382802"></polyline>
            <path d="M297.604857,665.707351 L309.710817,660.138696" id="Path-28"></path>
            <path d="M295.587196,658.619972 L303.153422,655.582524" id="Path-29"></path>
            <path d="M58.2058772,593.821082 C57.6232656,605.518299 58.3254181,614.76157 60.3123348,621.550896 C62.5473594,629.18801 66.1000871,636.634247 71.5471558,644.285335 C91.0759512,671.715965 101.630384,684.084254 124.130238,695.313323 C146.630093,706.542392 176.946735,713.294036 199.381405,713.294036 C221.816075,713.294036 254.748747,706.638473 274.370964,699.056447 C287.452442,694.001763 295.197073,685.475858 297.604857,673.478731" id="Path-30"></path>
            <path d="M286.507726,644.314896 C288.39612,645.759962 289.493915,646.585941 289.80111,646.792832 C306.764833,658.21763 318.538617,664.588022 325.122464,665.904009 C335.266495,667.931608 347.631082,667.380512 364.734439,665.904009 C381.837796,664.427506 439.093438,649.365649 448.401659,642.675006 C454.60714,638.214578 457.453718,630.704786 456.941392,620.145631" id="Path-31"></path>
            <polyline id="Path-32" points="243.128035 552.815534 164.439294 542.144306 164.439294 529.528433"></polyline>
            <path d="M156.207624,528.51595 L156.207624,541.709398 C149.969911,541.521256 145.983142,542.763716 144.247318,545.436777 C141.643582,549.446369 143.670514,551.189576 156.207624,553.235619 C168.744734,555.281661 202.627938,558.20582 217.475513,559.513768 C227.373896,560.385733 235.756599,562.877907 242.62362,566.990291" id="Path-33"></path>
            <path d="M242.613106,574.07767 C242.870062,573.120514 238.417305,571.753047 229.254836,569.975266 C215.511132,567.308596 182.562855,564.298837 168.11529,562.242649 M143.981403,554.971686 C143.981403,553.628267 143.644384,551.647116 143.253863,548.259362" id="Path-34"></path>
            <path d="M157.881898,409.549237 L156.368653,504.216366" id="Path-35"></path>
            <path d="M164.445175,503.710125 L165.442242,400.436893" id="Path-36"></path>
            <path d="M103.405077,418.661581 L98.3609272,476.879334" id="Path-37"></path>
            <path d="M110.971302,413.599168 L106.935982,462.704577" id="Path-38"></path>
            <path d="M20.1766004,423.723994 C18.7373086,426.548093 17.7277774,428.499419 17.1480066,429.57797 C7.98391205,446.625994 2.53547619,460.283557 0.802699023,470.550659 C-1.09451559,481.792091 0.371382725,544.085617 5.20039396,657.431237 L8.28170583,662.669903" id="Path-39"></path>
            <path d="M154.855408,143.195351 C227.221269,164.884244 268.599631,176.427505 278.990496,177.825133 C294.576793,179.921576 318.24344,180.737341 320.493743,177.825133 C322.744046,174.912925 321.442202,156.993827 321.442202,154.080309 C321.442202,152.137963 318.41634,150.460463 312.364616,149.047808 C313.206538,98.9185068 313.206538,70.9750098 312.364616,65.2173175 C311.522693,59.4596251 306.871001,55.5914014 298.409539,53.6126462 C303.45945,47.0277402 306.256526,42.5598284 306.800768,40.2089107 C307.617132,36.6825341 304.91443,25.8048004 296.137425,20.9693129 C290.286089,17.7456546 270.168469,13.1183432 235.784565,7.08737864 L232.333571,14.1988835 C261.42045,19.3491324 278.071869,23.0872311 282.287828,25.4131796 C288.611766,28.9021024 285.58516,37.5677565 282.287828,42.4466104 C278.990496,47.3254642 250.632162,79.558467 241.482867,85.0892094 C232.333571,90.6199518 227.937823,90.6199518 219.892066,90.6199518 C214.528228,90.6199518 197.075206,86.4542382 167.532998,78.1228111 L161.780915,85.0892094 L211.441933,97.2614655 C216.993774,98.4488169 223.375872,98.4488169 230.588226,97.2614655 C241.406759,95.4804384 242.780342,93.8349222 249.056134,90.6199518 C253.239996,88.4766381 260.928552,81.9190208 272.121802,70.9470998 L275.420414,70.9470998 C276.325427,86.7985738 275.95163,98.6471518 274.299021,106.492834 C272.646413,114.338516 268.986155,121.743316 263.318246,128.707234 L263.318246,147.267689 L187.425791,126.39804" id="Path-40"></path>
            <path d="M154.855408,122.004161 C204.644797,136.589505 232.303917,144.652654 237.832767,146.193609 C246.126043,148.505042 264.253968,155.667632 286.95067,158.661031 C302.081804,160.65663 313.367563,158.941852 320.807947,153.516698" id="Path-41"></path>
            <path d="M247.163355,104.285714 L263.304636,134.153953" id="Path-42"></path>
            <path d="M167.362235,77.961165 C163.861551,76.5317786 156.368653,61.1411365 156.368653,53.0378208 C156.368653,44.9345051 156.723673,33.6892321 162.69196,25.4281683 C168.660247,17.1671045 177.840957,12.6560333 184.231129,12.6560333 C190.621301,12.6560333 196.043397,14.2411462 198.235099,15.7890806" id="Path-43"></path>
            <path d="M189.660044,18.3765073 C181.479736,17.4467448 175.982771,20.8511155 171.189272,26.842396 C166.395772,32.8336765 164.4901,39.7379826 163.984887,49.0943566 C163.479674,58.4507306 166.930081,64.2020372 168.580567,68.6763911 C170.231053,73.150745 173.326003,74.4174757 173.326003,74.4174757" id="Path-44"></path>
            <polyline id="Path-45" points="154.855408 121.776123 196.522731 117.95423 263.304636 135.672677"></polyline>
            <polyline id="Path-46" points="263.809051 140.73509 205.099899 124.535368 187.642384 126.532426"></polyline>
            <path d="M207.818985,105.298197 L203.783664,128.585298" id="Path-47"></path>
            <path d="M183.607064,100.742025 L193.190949,127.066574" id="Path-48"></path>
            <path d="M294.189892,20.2496533 C295.234021,20.7159607 302.793118,22.611464 300.026165,32.3634983 C298.18153,38.8648545 294.179799,45.630212 288.020971,52.6595707 L300.026165,54.1678225" id="Path-49"></path>
            <path d="M161.917219,85.4618412 L170.756482,97.274269 C196.422365,102.464583 211.947886,105.58311 217.333045,106.629851 C225.410783,108.199963 230.004067,109.442214 235.586781,108.534488 C241.169495,107.626762 255.365636,98.2083437 263.686884,92.1716644 C269.234382,88.1472116 273.310425,83.5791256 275.915011,78.4674064" id="Path-50"></path>
            <path d="M295.563939,61.5975093 C292.599188,62.384007 290.193085,64.7816122 289.308617,70.1030084 C288.424148,75.4244046 289.700688,79.6440862 292.334345,81.9721027 C294.968001,84.3001193 296.81909,85.041457 300.618104,84.2172468 C304.417119,83.3930367 306.168045,79.5459422 306.842919,76.3488858 C307.517794,73.1518294 307.442496,67.5808461 304.417119,64.4077451 C301.391741,61.2346441 298.52869,60.8110117 295.563939,61.5975093 Z" id="Path-51"></path>
            <path d="M295.418019,68.5385594 C294.482045,69.4777156 293.425087,72.1188393 294.579589,74.4965615 C295.73409,76.8742836 298.709849,77.4662457 300.489315,76.5172555 C302.26878,75.5682654 303.304107,72.2893071 302.183598,70.0549756 C301.06309,67.8206441 299.532853,67.3300971 298.4165,67.3300971 C297.300147,67.3300971 296.353994,67.5994031 295.418019,68.5385594 Z" id="Path-52"></path>
            <path d="M155.359823,122.004161 L155.359823,143.772538" id="Path-53"></path>
            <path d="M186.796546,83.0235784 C186.484667,83.0235784 182.854387,81.6971099 181.939147,80.7390268 C179.000806,77.6631367 173.249038,70.2958368 171.767116,62.0705714 C169.823603,51.2832877 169.987512,44.7596275 173.056049,35.9110074 C176.124586,27.0623872 183.025346,21.1523471 190.389202,18.4121453 C197.753058,15.6719435 201.199433,15.1526084 209.452304,16.1890644 C214.954217,16.8800351 218.781374,18.5598687 220.933775,21.2285654" id="Path-54"></path>
            <path d="M231.053028,87.073509 C229.843363,84.8205378 223.960265,79.9460096 223.960265,69.1597874 C223.960265,58.3735652 224.766957,51.8151501 228.938731,44.5934314 C233.110505,37.3717127 236.788843,33.8991672 244.389994,29.4067923 C251.991145,24.9144175 257.171713,24.3183331 266.26863,26.6457908 C272.333241,28.1974292 278.070776,32.680275 283.481236,40.0943281" id="Path-55"></path>
            <path d="M251.198675,241.477115 C268.692009,266.758423 278.78031,287.008077 281.463576,302.226075" id="Path-56"></path>
            <path d="M247.163355,276.914008 C255.803853,292.476675 259.819055,302.938996 259.20896,308.300971" id="Path-57"></path>
            <path d="M287.012141,414.105409 L295.082781,419.086604 C291.925426,425.377606 289.503582,429.117115 287.817248,430.305132" id="Path-58"></path>
            <path d="M230.27121,87.073509 C202.564633,81.9575431 187.417467,78.2429817 184.829713,75.929825 C180.948083,72.46009 180.111358,67.328419 179.027785,64.0335906 C177.944211,60.7387623 177.171476,50.5656303 180.111358,41.582288 C183.051241,32.5989458 187.809221,28.1325469 191.675464,25.3863187 C195.541706,22.6400906 198.159595,21.2621359 203.544124,21.2621359 C207.133809,21.2621359 212.674569,21.2621359 220.166403,21.2621359 L250.69426,26.6670116" id="Path-59"></path>
            <path d="M253.798393,73.4049931 C252.230774,73.4049931 249.33528,71.5012247 247.770832,66.3626167 C246.206385,61.2240087 247.770832,56.1912988 251.23328,52.1639826 C254.695728,48.1366663 261.290877,46.7766015 264.952946,48.0454645 C268.615016,49.3143274 271.204452,51.5154183 271.879691,54.4686134" id="Path-60"></path>
        </g>
    </g>
</svg>