<?xml version="1.0" encoding="UTF-8"?>
<svg width="157px" height="157px" viewBox="0 0 157 157" version="1.1" xmlns="http://www.w3.org/2000/svg" xmlns:xlink="http://www.w3.org/1999/xlink">
    <!-- Generator: Sketch 49.1 (51147) - http://www.bohemiancoding.com/sketch -->
    <title>Shape</title>
    <desc>Created with Sketch.</desc>
    <defs></defs>
    <g id="Page-4" stroke="none" stroke-width="7" fill="none" fill-rule="evenodd">
        <path d="M147.434211,1 L9.56578947,1 C4.83503458,1 1,4.83503458 1,9.56578947 L1,147.434211 C1,152.164965 4.83503458,156 9.56578947,156 L83.8026316,156 L83.8026316,96.1754386 L63.5438596,96.1754386 L63.5438596,72.5991228 L83.6938596,72.5991228 L83.6938596,55.3859649 C83.6938596,35.3447368 95.9035088,24.4403509 113.769298,24.4403509 C119.838431,24.4583831 125.902186,24.8033272 131.934211,25.4736842 L131.934211,46.3850877 L119.588596,46.3850877 C109.880702,46.3850877 108.004386,50.9807018 108.004386,57.7517544 L108.004386,72.7078947 L131.254386,72.7078947 L128.235965,96.1754386 L108.004386,96.1754386 L108.004386,156 L147.434211,156 C152.164965,156 156,152.164965 156,147.434211 L156,9.56578947 C156,4.83503458 152.164965,1 147.434211,1 Z" id="Shape" stroke="#564E58" stroke-width="7" fill="#FFFFFF" fill-rule="nonzero"></path>
    </g>
</svg>