<?xml version="1.0" encoding="UTF-8"?>
<svg width="412px" height="156px" viewBox="0 0 412 156" version="1.1" xmlns="http://www.w3.org/2000/svg" xmlns:xlink="http://www.w3.org/1999/xlink">
    <!-- Generator: Sketch 49.1 (51147) - http://www.bohemiancoding.com/sketch -->
    <title>Group 3</title>
    <desc>Created with Sketch.</desc>
    <defs></defs>
    <g id="Page-1" stroke="none" stroke-width="1" fill="none" fill-rule="evenodd">
        <g id="Group-3" transform="translate(1.000000, 1.000000)" stroke="#252627" stroke-width="3">
            <g id="Group-2">
                <path d="M0.610363307,10.4596453 C3.38524473,40.343629 9.84922293,55.8446654 20.0022979,56.9627544 C35.2319104,58.639888 44.3035164,56.7940965 59.0765066,45.1213368 C68.9251667,37.339497 73.7284112,27.2000001 73.4862401,14.7028463" id="Path"></path>
                <path d="M73.4557198,16.2689634 L76.7560039,152.780859" id="Path-2"></path>
                <path d="M77.1319657,152.610969 L77.1319657,101.964664 C83.3455607,67.1769211 88.6703757,44.7623603 93.1064106,34.720981 C99.760463,19.6589121 109.527605,10.2504281 113.189694,10.2504281 C116.851782,10.2504281 131.866913,9.15566391 146.000621,46.7785015 C155.423094,71.8603932 160.185277,103.427553 160.287171,141.479982" id="Path-3"></path>
                <path d="M160.394139,141.583804 C159.287752,111.736525 160.871301,88.9328934 165.144786,73.1729092 C171.555014,49.5329331 173.755728,45.1582476 180.864395,27.9017571 C187.973062,10.6452666 195.129074,0.217498265 203.461431,0.654749692 C211.793789,1.09200112 213.933305,4.44268306 218.724852,29.8885344 C223.516399,55.3343858 224.554422,76.3653836 226.576005,98.6486488 C227.923727,113.504159 228.792057,130.0297 229.180995,148.225272" id="Path-4"></path>
            </g>
            <g id="Group" transform="translate(230.000000, 0.000000)">
                <path d="M59.3221322,45.1301478 L66.824065,154.479982" id="Path-5"></path>
                <path d="M0.579276802,6.99125893 C26.6889604,1.88090476 47.331729,-0.0848984275 62.5075828,1.09384939 C85.2713634,2.86197111 96.7814583,6.99125893 106.934001,16.5004189 C117.086543,26.0095789 114.334829,35.3470276 100.434108,48.3942515 C91.1669613,57.0924008 77.3088092,63.8256307 58.8596519,68.5939411" id="Path-6"></path>
                <path d="M58.9980814,68.1314608 C64.6191564,63.2203612 74.6626331,60.7648113 89.1285115,60.7648113 C100.544179,60.7648113 125.614056,67.8065832 146.17246,79.8224578 C164.691322,90.6462709 179.422272,105.890072 179.422272,116.995487 C179.422272,140.429392 169.640972,142.015038 158.843475,146.25444 C148.045977,150.493843 111.185162,148.408096 94.0679263,146.25444 C76.9506905,144.100784 67.5035578,136.794671 62.4478064,134.126132 C59.0773055,132.347106 56.8676777,129.660317 55.818923,126.065762" id="Path-7"></path>
            </g>
        </g>
    </g>
</svg>