<?xml version="1.0" encoding="UTF-8"?>
<svg width="157px" height="157px" viewBox="0 0 157 157" version="1.1" xmlns="http://www.w3.org/2000/svg" xmlns:xlink="http://www.w3.org/1999/xlink">
    <!-- Generator: Sketch 49.1 (51147) - http://www.bohemiancoding.com/sketch -->
    <title>Linkedin</title>
    <desc>Created with Sketch.</desc>
    <defs></defs>
    <g id="Page-4" stroke="none" stroke-width="7" fill="none" fill-rule="evenodd" stroke-linecap="round" stroke-linejoin="round">
        <g id="Linkedin" transform="translate(1.000000, 1.000000)" stroke="#564E58" stroke-width="7">
            <polygon id="Shape" points="2.78483333 50.5988586 34.2705 50.5988586 34.2705 154.492884 2.78483333 154.492884"></polygon>
            <path d="M115.524083,47.1614789 C101.71875,47.1614789 93.4856667,52.7137353 84.7669167,64.8728668 L84.7669167,50.5988586 L53.28125,50.5988586 L53.28125,154.492884 L85.0071667,154.492884 L85.0071667,98.1835857 C85.0071667,86.2866989 90.5768333,74.6548768 103.170583,74.6548768 C115.764333,74.6548768 123.2715,86.2866989 123.2715,97.9185211 L123.2715,154.492884 L155,154.492884 L155,95.5413996 C155,54.5635475 129.569667,47.1614789 115.524083,47.1614789 Z" id="Shape"></path>
            <path d="M18.6490833,0.106880869 C8.23566667,0.106880869 0,8.30132336 0,18.3483979 C0,28.3954724 8.23566667,36.5899149 18.6490833,36.5899149 C29.0625,36.5899149 37.2981667,28.3954724 37.2981667,18.3483979 C37.2981667,8.30132336 29.0625,0.106880869 18.6490833,0.106880869 Z" id="Shape"></path>
        </g>
    </g>
</svg>