<?xml version="1.0" encoding="UTF-8"?>
<svg width="962px" height="498px" viewBox="0 0 962 498" version="1.1" xmlns="http://www.w3.org/2000/svg" xmlns:xlink="http://www.w3.org/1999/xlink">
    <!-- Generator: Sketch 49.1 (51147) - http://www.bohemiancoding.com/sketch -->
    <title>Group 2</title>
    <desc>Created with Sketch.</desc>
    <defs></defs>
    <g id="Logo/Icons-Exploration" stroke="none" stroke-width="3" fill="none" fill-rule="evenodd">
        <g id="Group-2" transform="translate(2.000000, -2.000000)" stroke="#252627">
            <g id="Group" transform="translate(670.000000, 22.000000)" stroke-width="3">
                <path d="M120.250814,96.9531748 C98.2487541,96.9531748 61.1685119,108.946451 37.5965472,145.24542 C17.899838,177.65213 8.26597614,215.991021 17.7481236,261.370992 C31.8545353,307.622372 59.9561049,327.043691 97.4387071,332.984093 C115.558917,335.855861 136.154836,329.220801 153.651583,319.695693 M183.211137,298.721984 C188.117225,294.022093 193.552883,287.887283 196.865236,283.386576 C222.166657,250.428811 228.84225,209.96691 216.892014,162.000873 C207.983581,138.709022 195.975612,122.108358 180.875362,112.640256" id="Path-2"></path>
                <path d="M108.917861,93.5902471 C81.8290185,98.7214926 59.7394929,111.033059 42.6492839,130.524947 C17.0139704,159.76278 3.90503453,197.009414 7.01705002,238.544173 C10.1290655,280.078932 34.7370896,299.004119 47.7594661,311.35463" id="Path-3"></path>
                <path d="M45.0276057,160.000474 C48.6603514,163.742221 64.8364201,173.070481 93.555812,187.985256 C101.262802,187.985256 105.116297,184.296636 105.116297,176.919396 C105.116297,165.853537 102.581344,124.98927 99.3745253,114.690078 C96.1677067,104.390887 39.5784872,154.387855 45.0276057,160.000474 Z" id="Path-4"></path>
                <path d="M26.3720002,239.325955 C32.2923865,242.190658 81.4677271,220.226561 85.0235311,216.038737 C88.5793351,211.850912 87.3441466,207.660773 87.3441466,203.451905 C87.3441466,200.645992 71.3755456,188.507529 39.4383434,167.036515 C26.3720002,178.809963 20.451614,236.461252 26.3720002,239.325955 Z" id="Path-5"></path>
                <path d="M27.994645,249.700714 C22.16494,255.688424 53.2218929,307.178885 59.7248374,303.485685 C66.2277819,299.792485 89.9464236,250.36571 92.4868725,244.378 C95.0273213,238.39029 93.9130411,232.594934 87.2850664,232.594934 C80.6570917,232.594934 33.8243499,243.713004 27.994645,249.700714 Z" id="Path-6"></path>
                <path d="M107.118154,250.389067 C102.886363,252.709683 69.9883057,297.900545 69.9883057,308.943047 C69.9883057,319.98555 125.909781,318.629453 128.527172,313.040191 C131.144562,307.450928 119.675012,259.670746 117.806176,254.201802 C115.937339,248.732857 111.349946,248.068452 107.118154,250.389067 Z" id="Path-7"></path>
                <path d="M129.313076,99.6478692 C128.63741,161.508569 128.63741,193.981728 129.313076,195.531035 C130.326576,197.854996 131.654505,196.515555 135.22934,197.392749 C138.804176,198.269942 139.863667,242.251391 137.986875,244.667905 C136.73568,246.278914 133.844414,246.278914 129.313076,244.667905 L129.313076,251.771269 C141.52711,264.24492 148.332326,273.718362 149.728722,280.191596 C151.823317,289.901447 152.499364,283.052862 153.603405,312.708604 C154.339432,332.479099 154.25787,354.141995 153.35872,377.697293 L176.821805,402.361218 C178.648799,357.210179 179.649142,327.325975 179.822832,312.708604 C180.083368,290.782549 179.822832,289.774207 178.400483,269.503575 C176.978135,249.232943 176.525916,229.819838 167.293405,216.885095 C158.060894,203.950352 154.350532,208.60232 152.165902,205.313845 C150.709483,203.121528 150.47003,191.7263 151.447544,171.128162 L152.165902,106.248702" id="Path-8"></path>
                <path d="M183.186509,352.353271 L182.661835,400.466302 C189.869898,406.688724 196.824427,410.861966 203.525423,412.986028 C213.576917,416.172121 220.717577,414.654351 227.422326,414.654351 C234.127076,414.654351 272.560123,407.684359 281.887179,402.476154 C291.214235,397.267948 289.31366,388.458361 287.055234,385.567635 C284.796808,382.676909 257.220712,366.090981 238.200705,360.462497 C225.5207,356.710174 207.182635,354.007099 183.186509,352.353271 Z" id="Path-9"></path>
                <path d="M49.8689301,314.424642 C42.7930814,337.469125 38.874488,354.035892 38.1131501,364.124943 C36.9711431,379.25852 35.3498972,385.317495 46.0368424,401.147112 C56.7237875,416.976729 71.5341842,429.558306 87.2966643,436.26054 C103.059144,442.962773 108.230279,443.147238 129.01373,444.002233 C149.797181,444.857228 166.451306,439.429668 175.466138,436.26054 C184.48097,433.091411 187.64072,430.929681 188.745316,423.003831 C189.849912,415.07798 184.663998,409.986423 167.889591,393.45148 C151.115185,376.916537 146.342903,374.119693 129.01373,364.124943 C111.684557,354.130194 101.945585,352.628649 90.6546561,348.905567 C79.3637277,345.182486 72.9747717,339.004813 69.3259593,335.116343 C65.6771469,331.227873 70.8212723,326.018745 67.7857095,324.534568 C65.7620009,323.545117 59.7897411,320.175142 49.8689301,314.424642 Z" id="Path-10"></path>
                <path d="M38.3152267,302.698394 C39.8908478,302.698394 39.4469724,329.495682 36.9836004,383.090259 L36.9836004,411.023179 L5.84316657,417.118345 C3.95200016,350.284326 3.73675587,308.714985 3.73675587,300.766851 C3.73675587,288.844649 13.6192998,272.118903 14.5957154,270.061691" id="Path-11"></path>
                <path d="M43.1164794,286.510756 C43.843841,282.265917 48.5973266,276.705541 57.3769363,269.829627 C66.156546,262.953713 76.7126879,256.921703 89.045362,251.733596" id="Path-12"></path>
                <path d="M34.5642253,238.332784 C36.6347435,236.361613 37.6700026,233.573883 37.6700026,229.969591 C37.6700026,224.563154 32.0259487,224.932896 31.3447832,211.771047 C30.8906729,202.996482 35.960288,190.023484 46.5536283,172.852053" id="Path-13"></path>
                <path d="M58.9871222,180.450382 C51.424588,195.235037 47.2407956,205.083523 46.435745,209.995842 C45.2281691,217.36432 53.7743681,221.616572 58.4512797,217.36432 C61.5692208,214.529485 66.4423217,205.630087 73.0705823,190.666125" id="Path-14"></path>
                <path d="M64.3188315,172.438809 C67.268287,168.724874 69.9178961,166.867906 72.2676589,166.867906 C75.792303,166.867906 77.611429,169.718546 78.4912611,172.438809 C79.0778158,174.252318 78.8208777,176.674796 77.7204468,179.706242" id="Path-15"></path>
                <path d="M51.7772135,164.595469 C57.9570213,157.314391 62.9687852,153.25287 66.8125051,152.410905 C72.578085,151.147957 76.567716,152.410905 78.6591256,149.400322 C80.0533986,147.393267 80.4383536,138.580444 79.8139903,122.961853" id="Path-16"></path>
                <path d="M54.3224702,125.669364 L103.936894,27.0427697" id="Path-17"></path>
                <path d="M79.8918394,102.753673 C79.1224262,60.6241987 79.1224262,34.8435075 79.8918394,25.4115994 C81.0459593,11.2637374 93.4065608,4.29210844 96.6656925,2.54007109 C99.9248243,0.788033744 116.316884,-1.05599091 121.642521,2.54007109 C125.192946,4.93744576 128.239761,7.51522174 130.782967,10.273399" id="Path-18"></path>
                <path d="M134.347004,197.223578 C130.373849,196.852651 127.647043,197.024516 126.166587,197.739175 C123.945902,198.811163 119.110676,211.908367 119.110676,215.739934 C119.110676,219.571502 119.110676,228.036532 122.476834,236.488026 C124.720939,242.122355 129.032249,245.248155 135.410763,245.865428" id="Path-19"></path>
                <path d="M132.415854,255.093683 C134.043535,290.557296 136.063281,308.289103 138.475093,308.289103 C140.886905,308.289103 145.878774,305.687453 153.450699,300.484154" id="Path-20"></path>
                <path d="M156.74264,111.546771 C162.75813,113.6515 165.765875,116.461591 165.765875,119.977042 C165.765875,123.492493 162.75813,130.255583 156.74264,140.266312" id="Path-21"></path>
                <path d="M157.142721,157.692707 C156.703332,162.378359 156.759734,187.749761 156.759734,193.223572 C156.759734,198.697383 201.140515,184.571433 204.288586,179.057135 C207.436657,173.542837 182.600273,120.443989 176.048614,126.237196 C169.496955,132.030403 157.58211,153.007056 157.142721,157.692707 Z" id="Path-22"></path>
                <path d="M205.694826,190.217088 C209.321541,192.593212 199.885425,249.873893 196.879507,246.412724 C193.873589,242.951555 187.902241,230.102854 178.913278,223.396445 C169.924316,216.690037 174.769232,211.442052 174.769232,211.442052 C174.769232,211.442052 176.848011,208.365311 177.83813,205.221485 C178.828248,202.077659 178.913278,198.175887 178.913278,198.175887 C178.913278,198.175887 202.068111,187.840965 205.694826,190.217088 Z" id="Path-23"></path>
                <path d="M129.279641,107.273076 C117.466223,107.098533 110.808165,107.801821 109.305466,109.382941 C107.051418,111.754621 116.242377,168.32316 118.755215,172.458195 C120.43044,175.214885 123.747595,176.915602 128.706679,177.560347 L129.279641,107.273076 Z" id="Path-24"></path>
                <path d="M156.634873,107.279081 C156.634873,164.405901 156.634873,193.776094 156.634873,195.38966 C156.634873,197.81001 155.137707,203.104252 160.880818,206.776412 C166.62393,210.448572 169.890194,209.938792 174.520497,220.04303 C179.150801,230.147269 181.059138,236.838572 182.756959,285.310715 C183.888839,317.625477 183.318232,357.961584 181.045137,406.319036" id="Path-25"></path>
                <path d="M203.68048,273.777121 C202.532169,332.631602 201.958014,359.026345 201.958014,352.96135" id="Path-26"></path>
                <polyline id="Path-27" points="80.7682167 438.814857 80.7682167 455.675178 86.2022097 459.402845 103.534043 455.675178 103.534043 459.402845 270.76008 420.831793 270.76008 418.143067 285.971625 414.705172 285.971625 402.424671"></polyline>
                <path d="M188.779897,419.154798 L196.375106,415.497323" id="Path-28"></path>
                <path d="M187.285756,414.777281 L191.923407,412.750257" id="Path-29"></path>
                <path d="M37.3264948,374.082915 C36.95849,381.443311 37.4020024,387.259579 38.6570319,391.531717 C40.068778,396.33732 42.312847,401.022815 45.7534704,405.837212 C58.0887713,423.097754 64.7554447,430.880418 78.9674055,437.946235 C93.1793662,445.012052 112.328776,449.260479 126.499563,449.260479 C140.67035,449.260479 161.472166,445.072511 173.866477,440.301571 C182.12935,437.120945 187.021221,431.756075 188.54209,424.206963" id="Path-30"></path>
                <path d="M181.29982,405.683261 C182.492548,406.585258 183.185926,407.100827 183.379953,407.229967 C194.094403,414.361228 201.530838,418.337572 205.689259,419.158999 C212.096326,420.42461 219.905918,420.08062 230.708563,419.158999 C241.511207,418.237379 277.67442,408.835897 283.553582,404.659656 C287.473023,401.875495 289.270949,397.187947 288.947359,390.597013" id="Path-31"></path>
                <polyline id="Path-32" points="154.142114 348.131631 104.562851 341.389108 104.562851 333.417877"></polyline>
                <path d="M99.3748236,332.973931 L99.3748236,341.275731 C95.4380426,341.157345 92.9218903,341.939146 91.8263669,343.621134 C90.1830818,346.144117 91.4623308,347.241006 99.3748236,348.528451 C107.287316,349.815896 128.671879,351.655883 138.042565,352.478892 C144.289689,353.027564 149.580228,354.595731 153.914182,357.183394" id="Path-33"></path>
                <path d="M153.845736,361.414353 C154.007806,360.809325 151.199318,359.944934 145.420273,358.82118 C136.751705,357.135549 115.970234,355.233048 106.85772,353.93331 M91.6357508,349.337257 C91.6357508,348.488067 91.4231825,347.23576 91.1768693,345.094325" id="Path-34"></path>
                <path d="M100.40484,257.962088 L99.5067652,317.596401" id="Path-35"></path>
                <path d="M104.259571,317.511899 L104.861437,252.372074" id="Path-36"></path>
                <path d="M66.2360907,263.644807 L62.8093877,300.028038" id="Path-37"></path>
                <path d="M71.2340234,260.651244 L68.4360959,291.529706" id="Path-38"></path>
                <path d="M13.2428131,266.713264 C12.333591,268.489807 11.695855,269.717318 11.3296052,270.395798 C5.5405099,281.120122 2.09865168,289.711624 1.00403049,296.170304 C-0.194468288,303.241902 0.731561547,342.428611 3.78211999,413.730433 L5.72863068,417.025897" id="Path-39"></path>
                <path d="M98.4650257,90.4311585 C144.156889,104.087029 170.283221,111.354955 176.844022,112.234937 C186.685222,113.55491 201.628363,114.068536 203.049206,112.234937 C204.470049,110.401338 203.648064,99.1190248 203.648064,97.2846007 C203.648064,96.0616514 201.737532,95.0054553 197.916468,94.1160124 C198.448059,62.5533484 198.448059,44.9594227 197.916468,41.3342354 C197.384877,37.7090481 194.447795,35.2735175 189.105221,34.0276437 C192.293739,29.8816219 194.059816,27.0685127 194.40345,25.588316 C194.918903,23.368021 193.212415,16.5191274 187.670607,13.4745834 C183.976068,11.4448873 171.273786,8.53141614 149.563762,4.73416981 L147.384801,9.21175139 C165.75028,12.4544771 176.264,14.8080777 178.92596,16.2725531 C182.918899,18.4692663 181.007898,23.9253792 178.92596,26.9972278 C176.844022,30.0690764 158.938546,50.3637824 153.161674,53.8460763 C147.384801,57.3283703 144.609322,57.3283703 139.529225,57.3283703 C136.142493,57.3283703 125.12264,54.7055327 106.469666,49.4598574 L102.837796,53.8460763 L134.193804,61.5100337 C137.69924,62.2576198 141.728902,62.2576198 146.282789,61.5100337 C153.113619,60.3886544 153.980901,59.3525962 157.943441,57.3283703 C160.585135,55.9788863 165.439695,51.8500462 172.507122,44.9418499 L174.589869,44.9418499 C175.161295,54.922335 174.925279,62.3824965 173.881821,67.3223343 C172.838362,72.2621722 170.527272,76.9244198 166.94855,81.3090774 L166.94855,92.9952047 L119.029992,79.8551511" id="Path-40"></path>
                <path d="M98.4492852,76.8749865 C129.92428,86.0098104 147.409344,91.0597737 150.904477,92.0248764 C156.147177,93.4725304 167.606975,97.9584722 181.954983,99.8332423 C191.520322,101.083089 198.654758,100.009121 203.358292,96.6113385" id="Path-41"></path>
                <path d="M156.745505,65.9632299 L166.918992,84.7726234" id="Path-42"></path>
                <path d="M106.38803,49.4248928 C104.177293,48.5248071 99.4454118,38.8333088 99.4454118,33.7306451 C99.4454118,28.6279814 99.6696123,21.546825 103.438678,16.3448272 C107.207745,11.1428294 113.005506,8.30220457 117.040999,8.30220457 C121.076492,8.30220457 124.50063,9.30035129 125.884724,10.2750867" id="Path-43"></path>
                <path d="M120.327883,12.1443029 C115.182193,11.5596439 111.724416,13.7004012 108.709143,17.4678749 C105.69387,21.2353487 104.495138,25.5769568 104.177342,31.4604893 C103.859546,37.3440218 106.029968,40.9605937 107.06818,43.7741844 C108.106391,46.5877751 110.053219,47.3843285 110.053219,47.3843285" id="Path-44"></path>
                <polyline id="Path-45" points="98.5746416 76.9193618 124.825109 74.5026706 166.897795 85.7065478"></polyline>
                <polyline id="Path-46" points="167.040641 88.8933493 130.059441 78.5387739 119.062862 79.8152582"></polyline>
                <path d="M131.73581,66.6868159 L129.134126,81.2585531" id="Path-47"></path>
                <path d="M116.835712,63.5882695 L122.806697,80.2108224" id="Path-48"></path>
                <path d="M186.326478,12.8631755 C186.981571,13.1561576 191.7242,14.3471068 189.988195,20.474333 C188.830858,24.5591505 186.320145,28.8098406 182.456055,33.2264033 L189.988195,34.1740414" id="Path-49"></path>
                <path d="M102.700962,54.1430618 L108.290884,61.6099673 C124.521906,64.8908833 134.340196,66.8621758 137.745753,67.5238446 C142.854089,68.5163479 145.758867,69.3016032 149.289358,68.7278089 C152.819848,68.1540146 161.797442,62.2004173 167.059772,58.3844944 C170.567992,55.8405458 173.145668,52.9529542 174.7928,49.7217197" id="Path-50"></path>
                <path d="M187.168554,38.9531874 C185.253049,39.4472156 183.698484,40.9532398 183.127035,44.2958051 C182.555586,47.6383704 183.38035,50.2889081 185.081936,51.7512211 C186.783523,53.2135342 187.979498,53.6791957 190.434015,53.1614789 C192.888531,52.6437621 194.019792,50.2272602 194.455823,48.2190711 C194.891855,46.2108821 194.843206,42.7115419 192.888531,40.7184001 C190.933856,38.7252584 189.084059,38.4591592 187.168554,38.9531874 Z" id="Path-51"></path>
                <path d="M187.185613,43.6393818 C186.589983,44.2325156 185.917361,45.9005443 186.652057,47.402219 C187.386753,48.9038937 189.280451,49.2777534 190.412858,48.678409 C191.545265,48.0790646 192.204121,46.008205 191.491057,44.59709 C190.777994,43.1859751 189.80419,42.8761651 189.093771,42.8761651 C188.383352,42.8761651 187.781244,43.0462481 187.185613,43.6393818 Z" id="Path-52"></path>
                <path d="M98.7090887,77.039639 L98.7090887,90.5331101" id="Path-53"></path>
                <path d="M118.56472,52.4871382 C118.368712,52.4871382 116.087174,51.653938 115.51197,51.0521333 C113.665299,49.1200616 110.050462,44.4924087 109.119112,39.3258384 C107.897664,32.5499768 108.000677,28.4522429 109.929173,22.8941221 C111.857669,17.3360014 116.194618,13.6237032 120.822611,11.9024887 C125.450603,10.1812743 127.616561,9.85506222 132.803276,10.5060956 C136.261086,10.9401179 138.666355,11.9952789 140.019083,13.6715784" id="Path-54"></path>
                <path d="M146.465853,55.0875511 C145.701071,53.6747352 141.981616,50.6179669 141.981616,43.8540339 C141.981616,37.090101 142.491629,32.977384 145.129138,28.4487158 C147.766646,23.9200476 150.092191,21.7424488 154.897845,18.9253251 C159.703499,16.1082014 162.978794,15.7344028 168.730112,17.1939284 C172.564323,18.1669455 176.191749,20.9780936 179.612388,25.6273727" id="Path-55"></path>
                <path d="M159.247913,152.253285 C170.40754,168.061755 176.84323,180.723917 178.554982,190.239773" id="Path-56"></path>
                <path d="M156.840962,174.24814 C162.184907,184.047668 164.668215,190.635601 164.290886,194.011939" id="Path-57"></path>
                <path d="M181.836673,260.921715 L186.771929,264.121555 C184.841183,268.162795 183.360207,270.564997 182.329002,271.328159" id="Path-58"></path>
                <path d="M146.049405,54.8780359 C128.548005,51.6676865 118.980003,49.3367406 117.345398,47.8851982 C114.89349,45.7078846 114.364957,42.48768 113.680496,40.4201232 C112.996036,38.3525663 112.507923,31.9687653 114.364957,26.3315761 C116.221991,20.6943869 119.227462,17.8916511 121.669649,16.1683495 C124.111837,14.445048 125.765478,13.5803596 129.16672,13.5803596 C131.434215,13.5803596 134.934144,13.5803596 139.666507,13.5803596 L158.950023,16.9720045" id="Path-59"></path>
                <path d="M161.082026,46.6921482 C160.086531,46.6921482 158.247788,45.4835112 157.254308,42.2211859 C156.260827,38.9588607 157.254308,35.7637664 159.453087,33.206962 C161.651865,30.6501576 165.840022,29.7866993 168.165568,30.5922567 C170.491114,31.3978141 172.135499,32.7952109 172.564299,34.6700928" id="Path-60"></path>
            </g>
            <g id="Group-3" transform="translate(0.000000, 119.000000)">
                <path d="M0,243.598616 L0,254.70015 C9.93990881,262.677828 18.3332912,266.666667 25.1801472,266.666667 C35.4504311,266.666667 359.944732,266.666667 372.879929,266.666667 C381.503394,266.666667 390.543418,262.677828 400,254.70015 L400,243.598616 L0,243.598616 Z" id="Path-2" stroke-width="4"></path>
                <path d="M0.883002208,255.594002 L400,255.594002" id="Path-3" stroke-width="3"></path>
                <path d="M170.419426,243.598616 C170.419426,245.44406 171.422915,246.366782 173.429892,246.366782 C176.440358,246.366782 223.146212,246.366782 226.804894,246.366782 C229.244015,246.366782 230.463576,245.44406 230.463576,243.598616" id="Path-4" stroke-width="3"></path>
                <path d="M29.7560706,242.098616 L66.7291378,242.098616 L369.360927,242.098616 L369.360927,25 C369.360927,12.0213084 358.839619,1.5 345.860927,1.5 L53.2560706,1.5 C40.277379,1.5 29.7560706,12.0213084 29.7560706,25 L29.7560706,242.098616 Z" id="Rectangle-5" stroke-width="4"></path>
                <ellipse id="Oval-5" stroke-width="3" cx="200" cy="17.5317186" rx="3.09050773" ry="3.69088812"></ellipse>
                <rect id="Path" stroke-width="3" x="38.8520971" y="26.7589389" width="321.412804" height="206.689735"></rect>
            </g>
            <path d="M332,427.164754 L348.468458,447 C599.490385,210.698312 727.959016,89.6291818 733.87435,83.7926101 C742.747351,75.0377525 744.54256,65.3558895 740.271235,59.9991183 C735.999911,54.6423471 728.127098,56.9982553 717.164301,62.8361338 C709.85577,66.7280527 702.870185,73.0592741 696.207547,81.8297978 L717.164301,80.3483888 C722.068657,79.8489266 715.830652,85.4540458 698.450285,97.1637465 C672.379735,114.728297 651.109298,126.466805 644.095393,129.577215 C637.081488,132.687624 591.955384,183.667985 581.904277,193.332478 C575.203539,199.775473 491.902113,277.719565 332,427.164754 Z" id="Path" stroke-width="3" transform="translate(537.242233, 252.000000) rotate(-19.000000) translate(-537.242233, -252.000000) "></path>
        </g>
    </g>
</svg>