<?xml version="1.0" encoding="UTF-8"?>
<svg width="157px" height="134px" viewBox="0 0 157 134" version="1.1" xmlns="http://www.w3.org/2000/svg" xmlns:xlink="http://www.w3.org/1999/xlink">
    <!-- Generator: Sketch 49.1 (51147) - http://www.bohemiancoding.com/sketch -->
    <title>Group</title>
    <desc>Created with Sketch.</desc>
    <defs></defs>
    <g id="Page-4" stroke="none" stroke-width="7" fill="none" fill-rule="evenodd">
        <g id="Group" transform="translate(1.000000, -11.000000)">
            <path d="M153.169818,29.5045229 C150.278501,30.5828278 147.314582,31.455417 144.300219,32.1157674 C143.706489,32.2489004 143.097136,31.9680163 142.812729,31.4301018 C142.528321,30.8921873 142.639291,30.2304527 143.083616,29.814743 C146.540118,26.503914 149.387988,22.6114905 151.497326,18.3150166 C151.746947,17.7939812 151.637002,17.1718278 151.223924,16.7679027 C150.810847,16.3639776 150.186386,16.2679972 149.671074,16.5292276 C144.198393,19.4650617 138.228231,21.3593782 132.064056,22.115888 C125.603075,15.7025957 116.889223,12.0718241 107.785957,12.0000132 C98.930699,11.9921307 90.4358638,15.506378 84.1742483,21.7679935 C77.9126327,28.029609 74.3983855,36.5244442 74.406268,45.3797023 C74.394891,47.8447199 74.6490285,50.3037941 75.1642842,52.7143859 C50.7567016,51.9752527 22.2650032,40.1787939 5.61831972,19.6718926 C5.33636583,19.3186577 4.89623037,19.1301216 4.44600275,19.16972 C3.99577514,19.2093183 3.59530636,19.471787 3.37933945,19.868815 C-3.21313345,33.4508707 0.046720551,49.7611686 11.3533463,59.765825 C11.8069514,60.1349763 11.9709746,60.7543949 11.7595083,61.2996584 C11.5480419,61.8449219 11.009273,62.1917807 10.4253834,62.1585666 C7.51806581,62.0291725 4.66979849,61.2941358 2.06292695,60.0005133 C1.63149812,59.7819498 1.11607089,59.811106 0.712042389,60.0769289 C0.308013885,60.3427518 0.0772341416,60.8045483 0.107191163,61.2872526 C0.662251714,74.338172 9.23067543,85.6857761 21.6310751,89.7924388 C22.20957,90.0009784 22.5737752,90.5744013 22.5166128,91.1866737 C22.4594504,91.7989462 21.9953939,92.2950417 21.3882941,92.392893 C18.8481444,92.6811475 16.28354,92.6811475 13.7433903,92.392893 C13.2983464,92.3510995 12.8610398,92.5298621 12.5727125,92.871444 C12.2843851,93.2130258 12.1815775,93.6741372 12.2974946,94.1058478 C14.5877287,102.959261 26.0335037,113.32601 38.8388524,114.747627 C39.3629604,114.815947 39.7988664,115.184093 39.9539358,115.689375 C40.1090052,116.194657 39.9546578,116.74395 39.5591027,117.09451 C28.8807117,125.647153 15.4615309,130.034266 1.79317029,129.441273 C1.16227632,129.413245 0.596397778,129.826719 0.431385027,130.436295 C0.266372276,131.045872 0.546408217,131.688335 1.1052908,131.98238 C15.5270208,139.545816 31.5694084,143.494854 47.85412,143.4902 C73.4308549,143.659279 97.9498376,133.294557 115.650251,114.831261 C133.350665,96.3679643 142.672157,71.4336957 141.424613,45.8868448 L141.424613,44.6216861 C146.548156,41.0312 151.045,36.6209391 154.734406,31.5681613 C155.091615,31.0867251 155.088196,30.4272991 154.726014,29.949593 C154.363831,29.4718868 153.729817,29.2905594 153.169818,29.5045229 Z" id="Twitter" stroke="#564E58" stroke-width="7" stroke-linecap="round" stroke-linejoin="round"></path>
            <rect id="Rectangle-path" x="0" y="0.369995117" width="155" height="153"></rect>
        </g>
    </g>
</svg>